<svg xmlns="http://www.w3.org/2000/svg" xmlns:xlink="http://www.w3.org/1999/xlink" viewBox="0,0,256,256" width="512px" height="512px" fill-rule="nonzero"><defs><clipPath id="clip-1"><path d="M0,256v-256h256v256zM180.168,176l28.8,-28.8l-36.168,-36.168l-28.8,28.8l-28.8,-28.8l-36.168,36.168l28.8,28.8l-28.8,28.8l36.168,36.168l28.8,-28.8l28.8,28.8l36.168,-36.168z" id="overlayBgMask" fill="none"></path></clipPath></defs><g clip-path="url(#clip-1)" fill="none" fill-rule="nonzero" stroke="none" stroke-width="1" stroke-linecap="butt" stroke-linejoin="miter" stroke-miterlimit="10" stroke-dasharray="" stroke-dashoffset="0" font-family="none" font-weight="none" font-size="none" text-anchor="none" style="mix-blend-mode: normal"><g transform="scale(16,16)" fill="#ffffff"><path d="M12.527,7.473l-4,-4l-7.527,7.527v4h4zM11.172,0.828l-1.065,1.065l4,4l1.065,-1.065c1.105,-1.105 1.105,-2.895 0,-4v0c-1.105,-1.104 -2.896,-1.104 -4,0z"></path></g></g><g fill="#ffffff" fill-rule="nonzero" stroke="none" stroke-width="1" stroke-linecap="butt" stroke-linejoin="miter" stroke-miterlimit="10" stroke-dasharray="" stroke-dashoffset="0" font-family="none" font-weight="none" font-size="none" text-anchor="none" style="mix-blend-mode: normal"><g transform="translate(96,128) scale(12,12)" id="overlay"><path d="M6.4,8l-2.4,-2.4l-2.4,2.4l-1.6,-1.6l2.4,-2.4l-2.4,-2.4l1.6,-1.6l2.4,2.4l2.4,-2.4l1.6,1.6l-2.4,2.4l2.4,2.4z"></path></g></g></svg>